# xmcd
#
# Track frame offsets: 
#        150
#        16517
#        35875
#        58047
#        75205
#        93450
#        115985
#        136795
#        151627
#        171325
#
# Disc length: 2485 seconds
#
# Revision: 7
# Processed by: cddbd v1.5.2PL0 Copyright (c) Steve Scherf et al.
# Submitted via: ExactAudioCopyFreeDBPlugin 1.0
#
DISCID=6d09b30a
DTITLE=梁詠琪 - Gigi [dBS+1]
DYEAR=1998
DGENRE=Chinese Pop
TTITLE0=Spaghetti
TTITLE1=膽小鬼
TTITLE2=很高興
TTITLE3=氣象報告
TTITLE4=自由落體
TTITLE5=告訴他我不愛他
TTITLE6=我們的笑很像
TTITLE7=簡單生活
TTITLE8=沉澱
TTITLE9=Rainy Day
EXTD=
EXTT0=
EXTT1=
EXTT2=
EXTT3=
EXTT4=
EXTT5=
EXTT6=
EXTT7=
EXTT8=
EXTT9=
PLAYORDER=
